<svg xmlns="http://www.w3.org/2000/svg" width="18" height="16" viewBox="0 0 18 16" fill="none">
  <path d="M10.3856 14.9291L9.53347 15.7424C9.17267 16.0868 8.58924 16.0868 8.23228 15.7424L0.770601 8.62359C0.4098 8.27919 0.4098 7.72228 0.770601 7.38154L8.23228 0.259033C8.59308 -0.0853679 9.1765 -0.0853679 9.53347 0.259033L10.3856 1.07241C10.7502 1.42047 10.7425 1.98837 10.3702 2.3291L5.74505 6.5352H16.7764C17.2869 6.5352 17.6976 6.92723 17.6976 7.41452V8.58695C17.6976 9.07424 17.2869 9.46627 16.7764 9.46627H5.74505L10.3702 13.6724C10.7464 14.0131 10.754 14.581 10.3856 14.9291Z" fill="#353535"/>
</svg>