<?xml version="1.0" encoding="utf-8"?>
<!-- Generator: Adobe Illustrator 19.0.0, SVG Export Plug-In . SVG Version: 6.00 Build 0)  -->
<svg version="1.1" id="Calque_1" xmlns="http://www.w3.org/2000/svg" xmlns:xlink="http://www.w3.org/1999/xlink" x="0px" y="0px"
	 viewBox="-286 410.9 23 21" style="enable-background:new -286 410.9 23 21;" xml:space="preserve">
<style type="text/css">
	.st0{fill:none;stroke:#101010;}
</style>
<g id="Status_x3D_Default">
	<path id="Vector" class="st0" d="M-273.3,413.3L-273.3,413.3l-0.8,1l-0.4,0.4l-0.4-0.4l-0.8-1l0,0c-2-2.3-5.2-2.6-7.3-0.6
		c-2.5,2.3-2.6,6.5-0.4,9l8.3,9.4c0,0,0,0,0,0c0.3,0.4,0.9,0.4,1.2,0c0,0,0,0,0,0l8.3-9.4l0,0c2-2.6,2.5-6.2-0.4-9
		C-269.5,409.4-273.3,413.3-273.3,413.3z"/>
</g>
</svg>
